<?xml version="1.0" encoding="utf-8"?>
<!-- Generator: Adobe Illustrator 24.0.1, SVG Export Plug-In . SVG Version: 6.00 Build 0)  -->
<svg version="1.1" id="Layer_1" xmlns="http://www.w3.org/2000/svg" xmlns:xlink="http://www.w3.org/1999/xlink" x="0px" y="0px"
	 viewBox="0 0 447.7 262.6" style="enable-background:new 0 0 447.7 262.6;" xml:space="preserve">
<g id="_x34_rHBq0.tif">
	<g>
		<path d="M117.5,137.4c-1,4.2-2,7.2-2.3,10.3c-0.4,4-2.6,4.9-6.1,4.8c-3.5-0.1-6.9,0-10.8,0c-1.2,10.8-2.3,21.2-3.4,31.5
			c-1.7,16-3.3,32-5.2,48c-0.2,1.4-2.2,2.7-3.4,4c-1.2-1.4-3.3-2.8-3.5-4.3c-1.5-15.9-2.7-31.8-4-47.6c-2.1-26-4.1-51.9-6.8-77.9
			c-1.4,11.1-2.6,22.3-4.3,33.4c-1.3,8.8-3.1,17.6-5,26.4c-0.7,3.3-1.6,7.3-6.2,7.1c-4.3-0.1-6.4-3.5-7.4-7.1
			c-1.1-4.1-1.6-8.4-2.3-13c-0.7-0.1-1.6-0.5-2.6-0.4c-3.7,0.3-5.3-1.3-5.9-5c-0.4-2.3-2.2-4.4-3.4-6.6c-1.4,2.1-3.4,4-3.9,6.3
			c-0.9,4.1-3,5.4-7,5.3c-6.3-0.2-12.6-0.1-19-0.1c-2.6,0-5.4-0.1-5.3-3.6c0.1-3.5,3.1-3.3,5.6-3.3c5,0,10-0.1,15,0.1
			c2.5,0.1,3.7-0.8,4.8-3.1c1.2-2.8,3-5.7,5.4-7.5c5-3.6,11.2-0.8,13.5,6.1c1.1,3.4,2.4,5,6.1,4.6c3.3-0.4,4.2,1.7,4.3,4.7
			c0.1,3.8,0.6,7.6,0.9,11.4c0,0.3,0.4,0.5,1.4,1.7c1.5-8.7,3.2-16.5,4.1-24.4c2.9-25.7,5.4-51.5,8.3-77.2c0.2-1.7,2.4-3.3,3.6-4.9
			c1.2,1.5,3.2,3,3.4,4.6c1.4,14.9,2.5,29.8,3.7,44.7c2.1,27,4.2,53.9,6.4,82.3c0.8-2,1.4-2.7,1.4-3.5c1.1-10.9,2.3-21.8,3.3-32.7
			c0.4-4.8,2-7,7.4-6.8c9.7,0.4,9.8,0.1,11.9-9.3c1.2-5.3,2.1-10.7,3.6-16c0.6-2,2.3-4.8,3.9-5.2c3.3-0.7,3.5,2.7,3.9,5.1
			c2.7,14.3,5.4,28.7,8.1,43c0.1,0.7,0.5,1.4,1.2,3.5c1.4-6.6,2.6-11.8,3.4-17.1c0.5-2.9,2-3.9,4.7-3.9c5.3,0,10.6-0.1,16,0
			c2.7,0.1,3.9-0.9,5.1-3.4c1.4-3,3.6-6.2,6.4-7.8c5-2.8,10.5,0.3,12.6,6.8c1,3.2,2.2,4.8,5.8,4.4c3.5-0.4,4.6,1.5,4.6,4.8
			c0,3.7,0.3,7.5,0.5,11.2c0.5,0,1,0,1.5,0.1c1.3-10.4,2.9-20.8,3.9-31.2c2.4-26.4,4.6-52.9,6.7-79.4c1-12.1,1.4-24.2,2.5-36.3
			c0.2-2,1.7-5.2,3.2-5.5c3.9-0.9,3.8,2.6,4,5.2c1.9,22.3,3.7,44.7,5.6,67c2.2,26.6,4.4,53.3,6.6,79.9c1.5,18.7,3,37.4,5.3,56.1
			c1-8.6,2.1-17.3,3-25.9c1.5-13.7,2.9-27.4,4.2-41.1c0.4-3.7,2.1-5,5.8-5.1c11.6-0.3,11.6-0.4,13.9-11.8c1-4.7,1.7-9.5,3.1-14.1
			c0.6-1.8,2.5-3.3,3.8-4.9c1.3,1.7,3.4,3.2,3.7,5c3,14.4,5.6,29,8.3,43.4c0.1,0.6,0.3,1.3,1,1.9c0.8-5.5,4.6-10.5,1.9-16.7
			c-0.5-1.2,1.3-4.6,2.7-5.1c4.9-1.8,10.1-3.3,15.3-4c4.7-0.6,7-2.9,7.1-7.3c0.4-14.6,0.9-29.2,0.7-43.8c0-3.1-2.1-6.8-4.3-9
			c-3.5-3.4-7.8-6.2-12.2-8.5c-9.8-5.2-13.9-13.7-12.7-23.9c1.7-14.3,4.6-28.4,7.5-42.5c0.3-1.7,3.3-4.1,5.1-4.1
			c13.6-0.3,27.2-0.3,40.9,0c1.7,0,4.5,2.1,4.9,3.8c4,15.1,7.6,30.2,7.4,46c-0.1,8.8-3.5,15.3-11.1,19.8c-4.5,2.7-8.9,5.7-13.2,8.9
			c-3.5,2.6-5,6.2-4.9,10.8c0.3,12.8,0,25.6,0.3,38.4c0.2,8,0.6,10.7,9.7,11.9c4.5,0.6,9.1,2,13.3,3.7c1.4,0.5,3.1,4.1,2.6,4.8
			c-3.6,4.9-1.5,9.8,0.4,14.8c1.6-9.7,3.6-19.4,4.7-29.1c2.7-23.6,4.9-47.2,7.3-70.8c0.1-0.7,0-1.5,0.3-1.9c1.2-1.5,2.5-2.8,3.8-4.3
			c1.2,1.6,3.2,3,3.4,4.7c1,9.1,1.5,18.2,2.2,27.3c2.2,28.6,4.5,57.3,6.8,85.9c0.4,4.7,0.7,9.5,1.9,14.2c1.4-12.9,3-25.8,4.1-38.8
			c0.3-3.8,2-4.8,5.4-4.7c3.6,0.1,7.3,0,11.4,0c1.8-8.3,3.6-16.3,5.3-24.3c0.2-0.8,0.1-1.8,0.5-2.4c1.2-1.5,2.7-2.7,4.1-4.1
			c1.1,1.4,3,2.7,3.3,4.2c2.8,14,5.4,28,8.1,42c0.3,1.6,0.7,3.2,1.8,4.9c1.1-5.3,2.3-10.6,3.1-15.9c0.5-3,1.8-4.4,4.9-4.4
			c7.6,0.1,15.3-0.2,22.9,0.2c1.6,0.1,3,2.1,4.5,3.2c-1.5,1.2-3,3.2-4.5,3.3c-5.6,0.4-11.3,0.3-17,0.1c-2.9-0.1-4.4,0.6-4.9,3.9
			c-1.7,10-3.7,19.9-5.9,29.7c-0.4,1.7-2.4,3-3.6,4.6c-1.3-1.5-3.3-2.9-3.6-4.6c-3-14.9-5.8-29.9-8.6-44.9c-0.1-0.7-0.4-1.5-1.5-2.3
			c-0.7,2.9-1.5,5.8-1.9,8.8c-0.5,3.4-2.2,4.9-5.6,4.8c-3.6,0-8.4-1-10.5,0.9c-2.1,1.9-1.6,6.7-2,10.3c-2.2,20.6-4.3,41.3-6.4,61.9
			c-0.2,2.1-0.2,4.4-0.9,6.4c-0.6,1.5-2.2,2.7-3.4,4c-1.2-1.5-3.3-2.9-3.5-4.5c-1.2-12.2-2.1-24.5-3.1-36.7
			c-1.9-24.3-3.8-48.7-5.7-73c-0.4-5.4-0.9-10.9-1.4-17.7c-2.4,17.6-4.6,33.7-7,49.8c-0.7,4.9-2,9.8-3.6,14.4
			c-0.7,1.8-3,4.4-4.5,4.3c-2.2-0.1-5.6-1.6-6.4-3.5c-1.8-4.1-2.4-8.8-3.4-13.3c-0.1-0.6-0.2-1.3-0.2-1.7c-13.7,0-27.2,0-41.6,0
			c-1.5,7.7-3.3,16.4-5,25.1c-0.4,2.3-0.5,4.7-1.4,6.8c-0.7,1.7-2.5,3-3.8,4.5c-1.3-1.5-3.3-2.9-3.6-4.6
			c-2.3-10.7-4.1-21.5-6.2-32.2c-1-5-2-10-3.7-15.1c-0.7,2.9-1.8,5.8-2.1,8.8c-0.5,3.9-2.6,5-6.1,4.9c-3.5-0.1-6.9,0-10.8,0
			c-1.4,13.3-2.9,26.1-4.2,39c-2.4,22.3-4.7,44.6-7.3,66.8c-0.2,1.6-2.5,2.9-3.8,4.3c-1.1-1.4-3.1-2.7-3.2-4.2
			c-1.4-13.9-2.5-27.8-3.6-41.7c-2.2-26.8-4.5-53.6-6.7-80.4c-1.9-23.3-3.8-46.6-6.6-70c-0.6,6.9-1,13.8-1.7,20.7
			c-2.9,26-5.9,52.1-8.9,78.1c-0.1,1.1-0.4,2.4-1,3.3c-1.1,1.7-2.6,4.3-3.9,4.4c-2.1,0.1-5.4-1.2-6.2-2.8c-1.9-3.9-2.7-8.4-3.9-12.6
			c-0.3-1.3-0.2-2.6-0.4-4.3c-1.4-0.2-2.6-0.5-3.9-0.5c-3,0-4.4-1.4-4.8-4.4c-0.4-2.6-1.6-5.1-2.4-7.6c-0.6,0-1.3-0.1-1.9-0.1
			c-1.2,2.6-2.9,5-3.4,7.7c-0.6,3.4-2.3,4.4-5.4,4.4c-6.3,0-12.6,0-19.4,0c-2.2,11.1-4.1,22-6.5,32.7c-0.4,2-2.5,3.6-3.9,5.4
			c-1.3-1.9-3.4-3.5-3.8-5.6c-3-14.6-5.6-29.3-8.3-44C118.6,140.2,118.2,139.3,117.5,137.4z"/>
	</g>
</g>
</svg>
