<?xml version="1.0" encoding="UTF-8" standalone="no"?>
<!-- Created with Inkscape (http://www.inkscape.org/) -->

<svg
   xmlns:dc="http://purl.org/dc/elements/1.1/"
   xmlns:cc="http://creativecommons.org/ns#"
   xmlns:rdf="http://www.w3.org/1999/02/22-rdf-syntax-ns#"
   xmlns:svg="http://www.w3.org/2000/svg"
   xmlns="http://www.w3.org/2000/svg"
   xmlns:sodipodi="http://sodipodi.sourceforge.net/DTD/sodipodi-0.dtd"
   xmlns:inkscape="http://www.inkscape.org/namespaces/inkscape"
   width="371.77408mm"
   height="424.95358mm"
   viewBox="0 0 371.77408 424.95358"
   version="1.1"
   id="svg8"
   inkscape:version="0.92.2 (5c3e80d, 2017-08-06)"
   sodipodi:docname="Weinflaschen.svg">
  <defs
     id="defs2" />
  <sodipodi:namedview
     id="base"
     pagecolor="#ffffff"
     bordercolor="#666666"
     borderopacity="1.0"
     inkscape:pageopacity="0.0"
     inkscape:pageshadow="2"
     inkscape:zoom="0.35"
     inkscape:cx="926.99343"
     inkscape:cy="767.24093"
     inkscape:document-units="mm"
     inkscape:current-layer="layer1"
     showgrid="false"
     fit-margin-left="5"
     fit-margin-top="5"
     fit-margin-right="5"
     fit-margin-bottom="5"
     inkscape:window-width="1920"
     inkscape:window-height="1017"
     inkscape:window-x="1912"
     inkscape:window-y="-8"
     inkscape:window-maximized="1" />
  <metadata
     id="metadata5">
    <rdf:RDF>
      <cc:Work
         rdf:about="">
        <dc:format>image/svg+xml</dc:format>
        <dc:type
           rdf:resource="http://purl.org/dc/dcmitype/StillImage" />
        <dc:title></dc:title>
      </cc:Work>
    </rdf:RDF>
  </metadata>
  <g
     inkscape:label="Ebene 1"
     inkscape:groupmode="layer"
     id="layer1"
     transform="translate(852.40261,-92.480434)">
    <g
       id="layer0"
       transform="matrix(0.26458333,0,0,0.26458333,-857.45678,90.351214)">
      <path
         id="path830"
         d="M 263.938,27 C 248.94473,26.836428 233.59839,25.57772 219,29 c -15.25659,3.576583 -33.66114,6.416625 -43,19 -11.40835,15.371857 -7,37.857261 -7,57 0,19.14274 6.14441,37.87639 7,57 0.90929,20.32393 -1.66662,40.65847 -2,61 -0.35505,21.66376 0,43.33333 0,65 v 63 c 0,21 1.99188,42.09468 0,63 -1.67421,17.57136 -1.00946,36.81034 -10,52 -7.71724,13.0384 -23.47497,19.1649 -35,29 -11.13924,9.50588 -23.05395,18.25196 -33,29 -10.1879,11.00939 -19.474456,23.0244 -27,36 -8.015044,13.8196 -14.048251,28.81111 -19,44 -5.614484,17.22175 -9.987541,34.9983 -12,53 -2.333113,20.86999 -0.524509,42.00655 0,63 0.500156,20.01874 2.166407,39.99237 3,60 0.833016,19.99376 1.344075,39.99964 2,60 0.677766,20.66631 1.327875,41.33351 2,62 0.661296,20.33351 1.499916,40.66189 2,61 0.499883,20.32992 0.505487,40.6699 1,61 0.502813,20.6713 1.322234,41.3337 2,62 0.655925,20.0004 1.175158,40.0059 2,60 0.839136,20.3406 2.335754,40.6529 3,61 0.674408,20.6583 0.317146,41.3419 1,62 0.661565,20.0141 2.338435,39.9859 3,60 0.682854,20.6581 0.305869,41.3423 1,62 0.701252,20.8696 2.522615,41.6921 3.196612,62.5626 0.639553,19.804 -1.512986,39.759 0.803388,59.4374 1.956959,16.6251 0.744998,35.7691 11,49 9.863262,12.7255 27.61753,17.2459 43,22 17.65715,5.4571 36.60591,5.2075 55,7 19.61888,1.9118 39.29948,3.333 59,4 18.65598,0.6317 37.34402,0.6317 56,0 19.70052,-0.667 39.42162,-1.7103 59,-4 18.12476,-2.1197 36.72937,-3.1072 54,-9 14.67891,-5.0085 31.6709,-9.6095 41,-22 10.46056,-13.8932 8.86844,-33.7402 11,-51 2.45271,-19.8602 1.50529,-39.995 2,-60 0.51098,-20.663 0.66667,-41.3333 1,-62 0.33333,-20.6667 0.50011,-41.3367 1,-62 0.50008,-20.6714 1.32223,-41.3337 2,-62 0.65593,-20.0004 1.66662,-39.9917 2,-60 0.34985,-20.9971 -0.16934,-42.0007 0,-63 0.16667,-20.6687 0.31715,-41.3419 1,-62 0.66157,-20.0141 2.49984,-39.9813 3,-60 0.53283,-21.32668 -0.17203,-42.66736 0,-64 0.16667,-20.66868 0.32559,-41.34165 1,-62 0.66425,-20.34707 2.33306,-40.65302 3,-61 0.66622,-20.32515 0.83333,-40.66462 1,-61 0.17211,-20.99929 0.34412,-42.00282 0,-63 -0.33338,-20.34153 0.6763,-40.83254 -2,-61 -2.29743,-17.31248 -5.81858,-34.66629 -12,-51 -5.48967,-14.50583 -13.45341,-28.05738 -22,-41 -8.23292,-12.46761 -17.43538,-24.43538 -28,-35 -10.56462,-10.56462 -23.7886,-18.12444 -35,-28 -11.14423,-9.8164 -25.23635,-17.77848 -32,-31 -8.43742,-16.4934 -6.66318,-36.52204 -8,-55 -1.51532,-20.94526 0.16934,-42.00068 0,-63 -0.16667,-20.66868 -0.66667,-41.33333 -1,-62 -0.33333,-20.66667 -0.50011,-41.33669 -1,-62 -0.50008,-20.67137 -2.92964,-41.34349 -2,-62 0.86064,-19.12338 7.61525,-37.86715 7,-57 -0.57783,-17.969094 1.42155,-39.11582 -10,-53 -10.26348,-12.476417 -29.24597,-14.420798 -45,-18 -4.90668,-1.114763 -10.03058,-0.945109 -15.062,-1 z m 936.682,0.9062 C 1186.3995,28.21191 1170.4179,23.06365 1158,30 c -12.35,6.898441 -20.169,21.382577 -24,35 -5.1527,18.315282 2.4998,37.98028 3,57 0.517,19.65987 -0.3332,39.33616 0,59 0.3334,19.67514 1.6666,39.32486 2,59 0.3501,20.6637 -0.1751,41.33408 0,62 0.1667,19.66879 0.8333,39.33121 1,59 0.1751,20.66592 4.1554,41.75539 0,62 -3.0625,14.92048 -8.9523,29.74689 -18,42 -8.5693,11.60513 -22.6341,17.96708 -33,28 -10.3437,10.01147 -20.8724,20.11873 -29,32 -8.4166,12.30378 -15.0273,25.94674 -20,40 -5.6926,16.08777 -9.1559,33.0347 -11,50 -2.2333,20.54564 -0.5339,41.34023 0,62 0.5002,19.35272 2.4998,38.64728 3,58 0.5339,20.65977 -0.1751,41.33408 0,62 0.1667,19.66879 0.5057,39.33672 1,59 0.5029,20.00479 1.4971,39.99521 2,60 0.4943,19.66328 0.6721,39.33324 1,59 0.339,20.33324 0.661,40.6668 1,61 0.3279,19.6668 0.5057,39.3367 1,59 0.5029,20.0048 1.6666,39.9917 2,60 0.3387,20.3305 -0.1694,40.6674 0,61 0.1667,20.0021 0.8333,39.9979 1,60 0.1694,20.3326 -0.1694,40.6674 0,61 0.1667,20.0021 0.8333,39.9979 1,60 0.1611,19.3327 -0.4995,38.6731 0,58 0.5002,19.3527 -1.0392,39.0669 3,58 3.2806,15.3773 6.5995,32.208 17,44 9.7665,11.0732 24.9934,16.3292 39,21 16.9492,5.6521 35.2399,6.0504 53,8 19.2635,2.1146 38.6273,3.4971 58,4 19.6629,0.5105 39.3811,0.4105 59,-1 18.4336,-1.3253 36.9173,-3.1827 55,-7 15.9944,-3.3765 33.3116,-5.0642 47,-14 12.0799,-7.8858 22.5576,-19.6399 28,-33 7.1856,-17.6393 3.3329,-37.965 4,-57 0.7238,-20.654 0,-41.3333 0,-62 v -60 c 0,-20.6667 0.1751,-41.3341 0,-62 -0.1667,-19.6688 -0.8333,-39.3312 -1,-59 -0.1751,-20.6659 0,-41.3333 0,-62 0,0 0.3388,-40.0029 0,-60 -0.3334,-19.6751 -1.6666,-39.3249 -2,-59 -0.3445,-20.3304 0.1694,-40.6674 0,-61 -0.1667,-20.00208 -0.6638,-40.00005 -1,-60 -0.3306,-19.66671 -0.8333,-39.33121 -1,-59 -0.1751,-20.66592 0,-41.33333 0,-62 0,-20 0.3277,-40.00269 0,-60 -0.3334,-20.34153 -1.4943,-40.66203 -2,-61 -0.489,-19.66341 0.2345,-39.36929 -1,-59 -1.1575,-18.40574 -1.3918,-37.14292 -6,-55 -3.8827,-15.04557 -10.094,-29.62318 -18,-43 -7.3635,-12.45888 -16.7666,-23.76661 -27,-34 -10.2334,-10.23339 -23.8389,-16.69488 -34,-27 -10.3455,-10.49203 -21.4817,-21.33765 -27,-35 -6.7826,-16.79274 -4.9985,-35.91694 -6,-54 -1.1429,-20.63504 0.1751,-41.33408 0,-62 -0.1667,-19.66879 -0.8333,-39.33121 -1,-59 -0.1695,-19.99928 0.3388,-40.00287 0,-60 -0.3334,-19.67514 -2.184,-39.3229 -2,-59 0.1779,-19.02547 4.3764,-38.02355 3,-57 -1.2296,-16.952197 2.1926,-38.158172 -10,-50 -12.8546,-12.484783 -35.1484,-7.440236 -53,-9 -5.1073,-0.446246 -10.2544,-0.203989 -15.38,-0.0938 z M 1190,38 c 14.3043,1.353074 29.4017,-1.639981 43,3 10.2371,3.493072 24.3627,7.509773 27,18 4.2722,16.993401 10.0464,41.31069 -4,42 -17.1542,0.84182 -31.0194,-4.725161 -43.47,-13.375 -1.7259,-1.199006 -2.6921,-3.239732 -3.84,-5 -2.6205,-4.018508 -4.7164,-8.358427 -6.91,-12.625 -1.5514,-3.752863 -2.9303,-7.658918 -5.16,-11.0625 -4.5087,-6.882286 -10.1864,-13.733791 -16.34,-18.5 -5.244,-4.061701 -4.0132,-4.202305 -0.038,-3.603853 13.9408,2.098514 6.4965,0.857876 9.7576,1.166353 z m -23,4 c 24.1,-0.5 14.1,44 9,58 -19.4,-7.2 -12,-43.3 -9,-58 z M 771,60 c -19.45116,-2.92252 -39.91862,-3.773856 -59,1 -14.89595,3.726727 -32.16367,8.442255 -41,21 -10.44508,14.844013 -6.63827,35.853 -7,54 -0.37349,18.7372 4.48862,37.26605 5,56 0.52786,19.33762 -1.5081,38.66143 -2,58 -0.5171,20.32949 -0.49457,40.67022 -1,61 -0.49735,20.00493 -1.50265,39.99507 -2,60 -0.50543,20.32978 0.088,40.69306 -1,61 -0.98488,18.38257 1.45177,37.75867 -5,55 -5.18779,13.86355 -15.85311,25.22263 -26,36 -9.74264,10.348 -23.09514,16.80717 -33,27 -10.26866,10.5672 -18.98048,22.63883 -27,35 -8.03592,12.38644 -15.40205,25.33753 -21,39 -6.31902,15.42232 -11.22467,31.56603 -14,48 -3.27912,19.41714 -2.82249,39.30873 -3,59 -0.18339,20.34343 1.49427,40.66203 2,61 0.48896,19.66341 0.33381,39.34179 1,59 0.66695,19.68078 2.33305,39.31922 3,59 0.66619,19.65821 0.66944,39.33329 1,59 0.33616,19.99995 0.66667,40 1,60 0.33333,20 0.32535,40.0086 1,60 0.66417,19.6809 2,39.3333 3,59 1,19.6667 2.33583,39.3191 3,59 0.67465,19.9914 0.48864,40.0038 1,60 0.49454,19.3385 1.34971,38.6661 2,58 0.68389,20.3328 1.30997,40.6674 2,61 0.64483,19.0008 1.19194,38.0055 2,57 0.85112,20.0069 0.97486,40.0777 3,60 1.77356,17.4474 -1.97337,37.5748 8,52 8.48821,12.2771 24.9332,17.0097 39,22 16.88834,5.9913 35.20616,6.8809 53,9 19.24328,2.2917 39.7,2.6 58,4 19.9,-0.1 43.8,1.71 59,-1 21.4,0.4 38.76423,-1.6461 58,-4 17.13486,-2.0968 34.80627,-3.0198 51,-9 14.15775,-5.2284 30.42022,-10.5837 39,-23 10.00028,-14.472 7.34849,-34.4867 9,-52 1.87793,-19.9144 0.50558,-40.0033 1,-60 0.50286,-20.338 1.49714,-40.662 2,-61 0.49442,-19.9967 0.66384,-40 1,-60 0.33056,-19.6667 0.33381,-39.3418 1,-59 0.66695,-19.6808 2.33305,-39.3192 3,-59 0.66619,-19.6582 0.67213,-39.3332 1,-59 0.33898,-20.3332 0.48883,-40.6704 1,-61 0.49463,-19.6717 1.33333,-39.3333 2,-59 0.66667,-19.6667 1.50537,-39.32825 2,-59 0.51117,-20.32964 0.49457,-40.67022 1,-61 0.49735,-20.00493 1.32185,-40.00039 2,-60 0.65557,-19.33371 1.66662,-38.65805 2,-58 0.35616,-20.6636 0.73669,-41.34647 0,-62 -0.66709,-18.70233 -0.6947,-37.57998 -4,-56 -2.94366,-16.40465 -7.44382,-32.677 -14,-48 -5.7575,-13.45635 -13.65303,-25.97709 -22,-38 -8.3729,-12.06027 -17.69492,-23.54242 -28,-34 -10.12557,-10.27541 -24.03858,-16.69496 -33,-28 -9.53852,-12.03306 -17.14292,-26.13727 -21,-41 -4.85928,-18.72457 -1.34443,-38.66629 -2,-58 -0.67815,-19.99961 -1.66662,-39.99167 -2,-60 -0.32209,-19.33065 0.15845,-38.66732 0,-58 -0.16667,-20.33538 -0.308,-40.67571 -1,-61 -0.65876,-19.34797 -3.53287,-38.64816 -3,-58 0.51675,-18.76639 6.9545,-37.25078 6,-56 -0.90078,-17.694 0.84156,-38.821746 -11,-52 C 806.22046,63.003644 786.94894,62.396315 771,60 Z m 460.66,46 c 8.45,-0.58 17.46,1.825 22.34,7 3.3,24.3 3.0039,50.65117 4,76 1.0082,25.65552 1.6666,51.32684 2,77 0.29,22.33145 15.7921,51.20795 0,67 -17.9134,17.91337 -57.9329,14.3903 -76,0 -18.0671,-14.3903 -11.3862,-40.3024 -14,-61 -3.2586,-25.80361 -1.4956,-51.99635 -2,-78 -0.4914,-25.33076 1.2,-53.3 -1,-76 17,-34.7 14.0136,24.44873 17,38 5.4525,24.74184 0.8333,50.66502 1,76 0.1732,26.33276 0,79 0,79 -7.5,20.2 28.7,16.3 35,4 0.03,-0.449 0.07,-0.94 0.09,-1.406 -1.41,-2.804 -2.3809,-5.9018 -3.03,-9 -0.6047,-2.88649 -0.4104,-5.8871 -0.78,-8.813 -0.3294,-2.6078 -1.066,-5.1612 -1.28,-7.781 -0.059,-0.71628 0,-1.43733 0,-2.156 v -0.063 c 0,-0.0103 -10e-5,-0.0207 0,-0.031 0.3334,-24.25687 1.8221,-48.49149 2,-72.75 0.1907,-26.00144 -7.21,-52.7503 -1,-78 2.6237,-10.66812 1.57,-28.033 15.66,-29 z M 216,339 c 16.65837,-0.62269 8.92788,32.36451 10,49 1.18221,18.3437 14.30169,53.28626 -4,55 -16.82479,1.57545 -11.87928,-32.13882 -13,-49 -1.22569,-18.44053 -11.46832,-54.30966 7,-55 z m 493,1 c 24.03151,0.51406 4.86961,47.97873 4,72 -0.8511,23.51 14.49617,71.17235 -9,70 -23.64664,-1.17986 -2.82982,-47.33849 -2,-71 0.83352,-23.7668 -16.77597,-71.50859 7,-71 z m 469.06,1.531 c 1.42,0 2.65,0.417 3.72,1.031 0.23,0.038 0.17,0.055 0.44,0.094 6.22,0.914 1.72,29.544 2.78,37.344 -2.3,16.1 5.8,44.6 -5,50 -12.5,-4.7 -4.6,-33.1 -9,-46 0.55,-9.868 -2.88,-37.761 2.72,-41 0.06,-0.093 0.18,-0.136 0.25,-0.219 0.77,-0.891 2.15,-1.25 4.09,-1.25 z M 1126,559 c -1.1,12.7 -6.9553,33.36107 -9.93,50.136 -3.4089,19.2236 -2.17,44.864 -9.07,57.864 -2.7,-15 -4.0217,-41.72843 0,-62 3.2284,-16.27267 8,-36.8 19,-46 z m -976,33 c 12.21711,3.61048 -5.36355,24.92036 -7.375,37.5 -2.85703,17.86789 -5.84356,35.79838 -6.656,53.875 -0.96117,21.3858 2.67651,42.78672 2.125,64.187 -0.19365,7.51407 -1.03576,15.00298 -1.906,22.469 -0.27923,2.39562 -0.98665,4.74637 -1.063,7.157 -0.0589,1.85965 0.56632,3.70397 0.469,5.562 -0.0377,0.72016 0.29087,1.93946 -0.406,2.125 -2.05609,0.54745 -3.27906,-2.90584 -4.157,-4.844 -2.74379,-6.05727 -2.94173,-13.10154 -2.812,-19.75 0.0283,-1.45028 0.66196,-2.83534 0.781,-4.281 1.6963,-20.59963 -1.55731,-41.33816 -1,-62 0.51356,-19.0398 -0.25471,-38.43457 4,-57 3.60886,-15.74726 2.5069,-49.57862 18,-45 z m 489.875,33.594 c 3.07226,0.62713 0.45911,6.28824 0.125,9.406 -1.89545,17.68761 -17.7811,35.1767 -12,52 3.64122,10.59613 15.50991,24.86407 26.094,21.188 17.1624,-5.96085 -6.15321,-55.17408 11.906,-53.188 8.96661,0.98611 0.94469,18.08772 0.031,27.062 -0.98911,9.71508 -2.58982,19.51426 -5.937,28.688 -0.30029,0.82302 -0.82962,1.54335 -1.25,2.312 -0.0516,0.0942 -0.1062,0.18682 -0.156,0.282 -0.88342,1.68829 -2.09864,3.26948 -2.532,5.125 -0.002,0.0101 0.005,0.0218 0,0.031 -0.64835,1.27583 -2.3168,1.68079 -3.468,2.531 -0.12586,0.093 -0.2265,0.23482 -0.376,0.281 -2.3309,0.71995 -4.8733,-0.3766 -7.312,-0.312 -3.59851,0.0953 -7.20254,1.64249 -10.75,1.031 -1.04236,-0.17968 -1.91564,-0.89754 -2.875,-1.343 -0.54109,-0.25125 -1.08847,-0.48916 -1.625,-0.75 -1.8939,-0.92076 -3.78539,-1.85105 -5.625,-2.876 -0.40395,-0.22507 -0.85951,-0.39153 -1.187,-0.718 -0.19875,-0.19813 -0.30353,-0.47268 -0.438,-0.719 -1.17648,-2.15498 -2.82324,-4.20189 -3.219,-6.625 -2.8172,-17.24888 2.01926,-35.16631 6.719,-52 3.07755,-11.02326 2.66143,-33.69499 13.875,-31.406 z m 562.505,50.375 c 6.2064,-0.0537 12.4133,0.0258 18.62,0.031 25.3333,0.0211 50.6767,-0.71277 76,0 23.6948,0.66693 50.2,0.1 71,4 4.2,21.2 2.171,47.99348 3,72 0.84,24.32796 1.5044,48.66258 2,73 0.509,24.99704 3.9388,50.1711 1,75 -2.3852,20.15164 12.5,61.8 -15,59 -23.8,1.5 -49.3389,1.15301 -74,2 -24.0067,0.82451 -47.9844,2.49989 -72,3 -25.3278,0.52743 -50.677,0.72293 -76,0 -23.3619,-0.66694 -50.5,1.9 -70,-4 -4.4,-20.3 -3.1685,-47.97738 -4,-72 -0.8418,-24.32105 -0.509,-48.66934 -1,-73 -0.5046,-25.0038 -4.971,-50.16821 -2,-75 2.4207,-20.2327 -11.7,-61.5 16,-59 23.7,-1.3 47.9796,-3.10536 72,-4 18.1174,-0.67478 36.2508,-0.87425 54.38,-1.031 z M 132,794 c 12.57353,-0.15749 3.82245,24.90663 4.375,37.469 0.71113,16.16786 -1.30762,32.34765 -1.375,48.531 -0.0694,16.66986 0.83333,33.33083 1,50 0.16997,16.99915 -0.18082,34.00096 0,51 0.16668,15.66933 0.83332,31.3307 1,47 0.17018,15.9991 -0.15998,32.0008 0,48 0.16667,16.6692 1.02272,33.33 1,50 -0.02,14.6704 13.66065,43.4636 -1,44 -15.76857,0.5769 -3.59595,-31.3686 -4.531,-47.12 -0.86936,-14.6447 -0.83332,-29.3305 -1,-44 -0.18557,-16.3323 0.37088,-32.6709 0,-49 -0.33342,-14.6797 -1.66658,-29.3253 -2,-44.005 -0.37088,-16.32912 0.1775,-32.66763 0,-49 -0.16668,-15.33605 -0.90023,-30.66337 -1,-46 -0.13966,-21.46903 -0.5101,-42.9633 0.562,-64.406 C 129.57371,815.6144 121.1327,794.13612 132,794 Z m 978,185 c 5.28,0.987 5.9295,44.4022 6.48,66.75 0.5805,23.5695 0.84,65.88 -3.36,70.65 -3.49,-3.33 -3.6034,-46.2317 -4.12,-69.4 -0.5054,-22.6635 -2.38,-61.844 1,-68 z m -475,17 c 27.5,1.8 57,2.6 83,3 29.9,-1.9 58.5,4 84,0 29.9,-0.9 68.7,-9.4 53,33 0.5,29.7 0.864,55.47 0.156,85.19 -0.53,28.36 4.29727,78.4911 -6.156,80.81 -11.69463,2.5943 -14.40759,2.3537 -21,0 -9.39621,-3.3548 19.32622,0.1863 21,-7 5.16202,-22.163 2.3,-56.7 3,-83 1.2,-27.6 -1.1,-60.2 1,-85 12,-39.6 -54.43,-14.87 -65.156,-19.22 -27.5,-0.2 -71.019,-1.4 -83.938,-2 -24.262,-0.36 -57.927,-5.597 -77.75,-1.19 2.041,-2.497 4.84,-4.184 8.844,-4.59 z m 2,6 c 15.2,3.5 35.1,0.8 49,3 h 53 c 14.7,3.1 34.104,0.9 50,1 18.7,1.6 34.8,-1.9 51,-1 16.4,-0.2 4.5,27.5 8,41 1.8,19.2 -1.2,35.8 -1,52 v 51 c -2.2,15.1 5.5,40 -9,42 -13.5,4.2 -34.5,0.4 -49,3 -16.4,-0.2 -37.5,1.4 -51,-1 -16.5,-0.5 -35.3,1.1 -51,-2 -17,1.3 -34.2,-1.1 -50,-2 -18.6,2.5 -5.2,-28.1 -10,-41 v -53 c 2.2,-14.9 1.8,-32.5 1,-50 5.2,-12.4 -7.9,-42.6 9,-43 z m -12.906,2 c 1.541,2.97 0.048,36.59 -0.656,54 -3.731,-6.86 -2.479,-52.36 0.656,-54 z m -283,8.41 c 20.94,-0.35 9.455,36.39 11.906,54.59 0.4,25.2 2.63201,50.6459 -26.49492,51.2728 -22.7,1.9 -51.15762,0.795 -74.75762,0.495 -22.1,2.8 -52.24238,1.2474 -71.24238,0.7474 C 147.183,1124.4543 159.98985,1095.949 156,1064 c 0.1,-21.7 -10,-61.6 25,-46 h 76 c 24.7,-0.4 49.3,-2.7 73,-3 4.45,-1.72 8.102,-2.55 11.094,-2.59 z M 237,1019 c -23.29764,-0.3462 -47.3,1.2 -68,3 21.5,3.6 45.92929,2.5151 67,2 24.00304,-0.5867 50.1,1.5 68,-2 -15.8,-3.2 -43.19507,-2.6462 -67,-3 z m 386.312,42.28 c -0.303,8.21 -0.521,16.4 -0.312,24.72 v 85 c 0.564,4.93 0.157,11.74 0.344,16.09 -3.093,-8.82 -4.76,-17.84 -3.156,-32.28 l -1.969,-83.72 c 2.117,-12.07 4.87,-7.01 5.093,-9.81 z m -328.124,47.94 c -16.796,0 -23.141,-0.17 -54.188,0.78 -31.047,0.95 -51.8,-1.2 -70,3 21.9,3.4 47,3.2 72,3 21.5,-2.8 50.9,0.4 68,-6 -4.9,-0.58 -10.214,-0.78 -15.812,-0.78 z"
         inkscape:connector-curvature="0"
         style="fill:#000000;stroke:#000000;stroke-width:0;stroke-linecap:round;stroke-linejoin:round"
         sodipodi:nodetypes="aaaaaaaaaaaaaaaaaaaaaaaaaaaaaaaaaaaaaaaaaaaaaaaaaaaaaaaaaaaaaaaaaaaaaaaaaaaaaaaaaaaaaaaaaaaaaaaaaaaaaaaaaaaaaaaaaaaaaaaaaaaaaaaaaaaaaassaacassacccaaaaaaaaaaaaaaaaaaaaaaaaaaaaaaaaccaaaaaaaaaaaaaaaaaaaaaaaaaaaaaaaccaaazaacaacccaaaaaaaacaaaaaaaaaascccccccscacacaaaaaaaaaaaaaaaaaaaaaaaaaaaaaaaaaaaaaaaacaaacaaacaaacaaaaaaaaaaaaaaaaaaacacaccccccsssccccccccccccccccccccccccccccccccccccscscscccccccsscccs" />
    </g>
  </g>
</svg>
